<?xml version="1.0" encoding="utf-8"?>
<!-- Generator: Adobe Illustrator 22.0.1, SVG Export Plug-In . SVG Version: 6.00 Build 0)  -->
<svg version="1.1" id="圖層_1" xmlns="http://www.w3.org/2000/svg" xmlns:xlink="http://www.w3.org/1999/xlink" x="0px" y="0px"
	 viewBox="0 0 34.6 34.6" style="enable-background:new 0 0 34.6 34.6;" xml:space="preserve">
<style type="text/css">
	.st0{fill:#FFC107;}
</style>
<path class="st0" d="M34.2,13.3c-0.2-0.7-0.8-1.2-1.6-1.2l-9.8-0.9L19,2.1C18.7,1.5,18,1,17.3,1s-1.4,0.4-1.7,1.1l-3.9,9.1L2,12.1
	c-0.7,0.1-1.3,0.6-1.6,1.2c-0.2,0.7,0,1.4,0.5,1.9l7.4,6.5l-2.2,9.6c-0.2,0.7,0.1,1.4,0.7,1.9c0.3,0.2,0.7,0.3,1.1,0.3
	c0.3,0,0.6-0.1,0.9-0.3l8.5-5.1l8.5,5.1c0.6,0.4,1.4,0.3,2-0.1c0.6-0.4,0.9-1.2,0.7-1.9l-2.2-9.6l7.4-6.5
	C34.2,14.8,34.5,14,34.2,13.3z"/>
</svg>
